<?xml version="1.0" encoding="UTF-8"?>
<svg version="1.1" xmlns="http://www.w3.org/2000/svg" width="418" height="418">
<path d="M0 0 C7.56745658 1.20902722 15.13386601 2.21399434 22.75 3.0625 C34.28134353 4.35648393 45.79825634 5.7499303 57.3125 7.1875 C58.18413788 7.29621429 59.05577576 7.40492859 59.9538269 7.51693726 C70.38673582 8.8211572 80.80593609 10.17985634 91.20532227 11.73217773 C97.6261949 12.67672459 104.06264219 13.37504624 110.52661133 13.95385742 C119.77599108 14.8305513 127.44527166 16.00263657 134.1875 22.9375 C138.5207791 29.51213036 139.45869942 35.03754327 138.8125 42.6875 C138.76802734 43.44289062 138.72355469 44.19828125 138.67773438 44.9765625 C138.4222753 48.64760396 137.96524609 52.09301651 137.0078125 55.6484375 C135.79120924 60.16709037 135.430087 64.65875155 135.0625 69.3125 C134.17111692 79.53670919 132.83259843 89.66180722 131.39550781 99.82128906 C130.9811746 102.82392604 130.5923715 105.82895036 130.2109375 108.8359375 C130.08130615 109.85574707 129.9516748 110.87555664 129.81811523 111.92626953 C129.57280722 113.86701936 129.32994348 115.80808049 129.09008789 117.74951172 C128.32057885 123.79744865 127.25475085 129.72070195 126 135.6875 C129.63 135.6875 133.26 135.6875 137 135.6875 C138.29078513 138.26907025 138.12587682 140.11673428 138.12698364 143.00843811 C138.12980347 144.13723892 138.13262329 145.26603973 138.13552856 146.42904663 C138.13249222 148.29540268 138.13249222 148.29540268 138.12939453 150.19946289 C138.13202301 152.15795921 138.13202301 152.15795921 138.13470459 154.15602112 C138.13927291 157.7426417 138.13749194 161.32923359 138.1343255 164.91585469 C138.13179934 168.66301506 138.13414011 172.41017292 138.13571167 176.15733337 C138.13753239 182.44970136 138.13512938 188.74205762 138.13037109 195.03442383 C138.1249263 202.31896467 138.1266931 209.60347754 138.1321975 216.88801771 C138.13672859 223.13345965 138.13737927 229.37889314 138.13475883 235.62433618 C138.13319634 239.35844439 138.13300158 243.09253943 138.13629532 246.8266468 C138.13970781 250.98609208 138.13498438 255.14548874 138.12939453 259.30493164 C138.13141876 260.55119324 138.13344299 261.79745483 138.13552856 263.08148193 C138.13270874 264.20746292 138.12988892 265.33344391 138.12698364 266.49354553 C138.1264181 267.97050951 138.1264181 267.97050951 138.12584114 269.47731113 C138 271.6875 138 271.6875 137 272.6875 C134.00384458 272.78550125 131.03073016 272.8174134 128.03416443 272.80775452 C127.0818423 272.80860894 126.12952018 272.80946337 125.14833981 272.81034368 C121.93147546 272.81200139 118.71466234 272.80647238 115.49780273 272.80102539 C113.20211793 272.80074356 110.90643304 272.80090118 108.61074829 272.8014679 C102.35686689 272.80175601 96.10300449 272.79585699 89.84912753 272.78889394 C83.32146217 272.78266276 76.79379642 272.78205679 70.26612854 272.78086853 C59.30282246 272.77810881 48.33952344 272.77185324 37.3762207 272.76293945 C26.08195022 272.7537661 14.78768165 272.74669635 3.4934082 272.74243164 C2.790598 272.74216364 2.08778779 272.74189565 1.3636803 272.74161953 C-4.74936994 272.73930681 -10.86242024 272.73715395 -16.97547054 272.73501682 C-43.31698695 272.72560034 -69.65848481 272.70568189 -96 272.6875 C-96 227.4775 -96 182.2675 -96 135.6875 C-95.34 135.6875 -94.68 135.6875 -94 135.6875 C-94.29003906 134.68783203 -94.29003906 134.68783203 -94.5859375 133.66796875 C-94.84632812 132.74628906 -95.10671875 131.82460937 -95.375 130.875 C-95.63023438 129.98167969 -95.88546875 129.08835938 -96.1484375 128.16796875 C-97.07039683 124.39977716 -97.74781954 120.62585796 -98.42431641 116.80737305 C-99.49351745 111.01292004 -100.7577245 105.25936143 -102 99.5 C-102.26039062 98.28119141 -102.52078125 97.06238281 -102.7890625 95.80664062 C-104.34934083 88.52268345 -104.34934083 88.52268345 -106.16796875 81.30078125 C-107.05261241 77.45901889 -107.30026855 74.00102563 -107.3125 70.0625 C-107.32925781 68.81210938 -107.34601563 67.56171875 -107.36328125 66.2734375 C-106.9745113 62.43590186 -105.92942216 59.99653536 -104 56.6875 C-103.34 56.6875 -102.68 56.6875 -102 56.6875 C-102 56.0275 -102 55.3675 -102 54.6875 C-100.35 54.0275 -98.7 53.3675 -97 52.6875 C-97 52.0275 -97 51.3675 -97 50.6875 C-95.48129302 50.201636 -93.95989301 49.72418799 -92.4375 49.25 C-91.59058594 48.98316406 -90.74367188 48.71632812 -89.87109375 48.44140625 C-86.5926886 47.58054612 -83.35760068 47.16183309 -80 46.6875 C-76.19802224 45.96580963 -72.41189961 45.17162706 -68.625 44.375 C-67.573125 44.15497314 -66.52125 43.93494629 -65.4375 43.70825195 C-56.59021811 41.8428693 -47.78535897 39.8241566 -39 37.6875 C-38.72847017 36.20846103 -38.45785406 34.72925434 -38.1875 33.25 C-38.00058594 32.25613281 -37.81367188 31.26226562 -37.62109375 30.23828125 C-37.16472915 27.62925343 -36.7657782 25.04046168 -36.41015625 22.41796875 C-34.32498405 7.82654954 -34.32498405 7.82654954 -28 2.6875 C-27.01 2.6875 -26.02 2.6875 -25 2.6875 C-25 2.0275 -25 1.3675 -25 0.6875 C-16.91389332 -2.7171765 -8.41628463 -1.43671219 0 0 Z M-23.75 10.25 C-28.33496552 17.28604772 -29.22645955 27.52237527 -29 35.6875 C-26.03 35.3575 -23.06 35.0275 -20 34.6875 C-19.01 28.0875 -18.02 21.4875 -17 14.6875 C-8.84567536 15.22396873 -0.86631768 16.26447479 7.19873047 17.52832031 C13.81064366 18.54974347 20.42595076 19.34219502 27.08837891 19.95288086 C30.3027675 20.27146782 33.13121853 20.73241588 36.1953125 21.78125 C39.22662699 22.76072766 40.90144811 22.67618471 44 22.125 C48.57535827 21.51862722 51.01610061 22.19756288 55 24.6875 C55.66 24.6875 56.32 24.6875 57 24.6875 C57.99 26.6675 57.99 26.6675 59 28.6875 C59.66 28.6875 60.32 28.6875 61 28.6875 C61.43948405 30.12439466 61.87642401 31.56206738 62.3125 33 C62.55613281 33.80050781 62.79976563 34.60101563 63.05078125 35.42578125 C64.42931781 40.16272788 65.71158475 44.9253697 67 49.6875 C67.84183838 49.69160889 68.68367676 49.69571777 69.55102539 49.69995117 C72.70317158 49.72707434 75.85401389 49.77630863 79.00561523 49.84008789 C80.36421899 49.86314787 81.72299848 49.87763529 83.08178711 49.88305664 C97.17055386 49.95031847 97.17055386 49.95031847 103 55.6875 C107.13105558 61.39049331 108.08005979 66.54549704 108.5625 73.4375 C108.64628906 74.60796875 108.73007812 75.7784375 108.81640625 76.984375 C108.87699219 77.87640625 108.93757812 78.7684375 109 79.6875 C110.65 80.0175 112.3 80.3475 114 80.6875 C113.29009191 92.72572871 112.37511483 104.70435644 111 116.6875 C110.34 116.6875 109.68 116.6875 109 116.6875 C109 127.2475 109 137.8075 109 148.6875 C113.31608796 147.15437233 113.31608796 147.15437233 117 144.6875 C118.67925311 136.0865094 119.53059215 127.33399211 120.4375 118.625 C121.3986076 109.6532239 122.53415458 100.74491681 123.94506836 91.83374023 C124.958039 85.30770517 125.62777987 78.77670155 126.22631836 72.20117188 C126.79524254 66.17211481 127.660677 60.22721802 128.625 54.25 C131.12936769 41.76087994 131.12936769 41.76087994 129.05078125 29.63671875 C125.93440969 25.51760304 122.07516242 24.02765585 117.12841797 23.21679688 C116.09346191 23.11431641 115.05850586 23.01183594 113.9921875 22.90625 C112.83976563 22.78636719 111.68734375 22.66648437 110.5 22.54296875 C109.30375 22.42566406 108.1075 22.30835938 106.875 22.1875 C99.36496446 21.43649645 91.97347898 20.56651792 84.56005859 19.14257812 C80.51895831 18.42422881 76.46078586 18.05148153 72.375 17.6875 C70.63920887 17.52333685 68.90353313 17.35794949 67.16796875 17.19140625 C65.87705322 17.06789795 65.87705322 17.06789795 64.56005859 16.94189453 C60.59714015 16.54809699 56.64217471 16.09367608 52.6875 15.625 C52.01315918 15.54572266 51.33881836 15.46644531 50.64404297 15.38476562 C44.08991565 14.60149558 37.5647945 13.62476296 31.03564453 12.65940857 C27.33295231 12.11491675 23.62870732 11.58138177 19.92431641 11.04858398 C17.98854301 10.76818936 16.05330619 10.48406278 14.11865234 10.19604492 C-5.61837653 5.87314824 -5.61837653 5.87314824 -23.75 10.25 Z M37 30.6875 C35.40265153 31.03355791 33.80350955 31.37139089 32.203125 31.703125 C30.78435059 31.9978772 30.78435059 31.9978772 29.33691406 32.29858398 C28.31823242 32.50942627 27.29955078 32.72026855 26.25 32.9375 C25.18233398 33.15929932 24.11466797 33.38109863 23.01464844 33.60961914 C18.66889176 34.51238089 14.32277836 35.41341656 9.9765625 36.31396484 C-2.12673347 38.82264063 -14.22365909 41.3599831 -26.3125 43.9375 C-28.1382959 44.3250647 -28.1382959 44.3250647 -30.00097656 44.72045898 C-31.13116211 44.96223877 -32.26134766 45.20401855 -33.42578125 45.453125 C-34.43036377 45.66743164 -35.43494629 45.88173828 -36.4699707 46.10253906 C-39.10291415 46.66936294 -39.10291415 46.66936294 -42 47.6875 C-43.66362417 48.03570041 -45.32995171 48.37154492 -47 48.6875 C-47 49.0175 -47 49.3475 -47 49.6875 C-12.35 49.6875 22.3 49.6875 58 49.6875 C58 43.96360583 56.0053355 38.51750348 53 33.6875 C49.8758958 31.04936757 47.96108007 29.78360801 43.875 29.375 C41.45069515 29.6385114 39.34945905 30.08471387 37 30.6875 Z M-75.9375 54.4375 C-77.20013672 54.69015625 -78.46277344 54.9428125 -79.76367188 55.203125 C-80.98505859 55.4609375 -82.20644531 55.71875 -83.46484375 55.984375 C-85.12954712 56.33000488 -85.12954712 56.33000488 -86.82788086 56.68261719 C-91.61500195 58.19910995 -95.03912451 60.3021887 -97.91015625 64.44140625 C-99.23736853 68.3945009 -99.04191624 71.58675847 -98.4375 75.625 C-98.33816162 76.36935303 -98.23882324 77.11370605 -98.13647461 77.88061523 C-97.24631422 84.04885686 -95.71300076 89.96964679 -94.00390625 95.9609375 C-92.45261504 101.71942705 -91.45839236 107.57311659 -90.40625 113.43798828 C-89.63029713 117.73464075 -88.82408363 122.02483675 -88 126.3125 C-87.76893555 127.57453247 -87.76893555 127.57453247 -87.53320312 128.86206055 C-86.22939884 136.79445263 -86.22939884 136.79445263 -81.38623047 142.80224609 C-79.43723697 143.83590243 -77.47392691 144.71479154 -75.4375 145.5625 C-74.40979492 146.02269531 -74.40979492 146.02269531 -73.36132812 146.4921875 C-69.8140481 148.13538392 -69.8140481 148.13538392 -66 148.6875 C-66 139.7775 -66 130.8675 -66 121.6875 C-69.96 122.6775 -73.92 123.6675 -78 124.6875 C-78.33 122.3775 -78.66 120.0675 -79 117.6875 C-78.14535156 117.41035156 -77.29070312 117.13320312 -76.41015625 116.84765625 C-75.30542969 116.48542969 -74.20070313 116.12320313 -73.0625 115.75 C-71.40927734 115.21052734 -71.40927734 115.21052734 -69.72265625 114.66015625 C-67.11876525 113.94893332 -67.11876525 113.94893332 -66 112.6875 C-65.69476038 108.03661285 -65.69476038 108.03661285 -67 103.6875 C-71.95 104.0175 -76.9 104.3475 -82 104.6875 C-82.63228516 101.72523438 -82.63228516 101.72523438 -83.27734375 98.703125 C-83.68769451 96.78351804 -84.09805021 94.86391212 -84.50854492 92.94433594 C-84.7929729 91.61365982 -85.0771553 90.28293118 -85.36108398 88.95214844 C-85.77001905 87.03566816 -86.17992021 85.1193941 -86.58984375 83.203125 C-86.83597412 82.05102539 -87.08210449 80.89892578 -87.33569336 79.71191406 C-87.71793049 77.97168857 -88.12159975 76.23524852 -88.58422852 74.51464844 C-89.25030344 71.58751707 -89.05743671 68.6742091 -89 65.6875 C-88.3294458 65.56221924 -87.6588916 65.43693848 -86.96801758 65.30786133 C-83.91198297 64.72519325 -80.86259939 64.11294739 -77.8125 63.5 C-76.22985352 63.20512695 -76.22985352 63.20512695 -74.61523438 62.90429688 C-68.63411917 61.67788524 -64.88949657 60.72471686 -61 55.6875 C-59.66666667 54.35416667 -58.33333333 53.02083333 -57 51.6875 C-63.48041844 51.46146517 -69.63163186 53.10251723 -75.9375 54.4375 Z M-56.47161865 62.32754517 C-58.40076161 66.56852418 -58.53665712 69.84690649 -58.45410156 74.44677734 C-58.45468567 75.30596771 -58.45526978 76.16515808 -58.45587158 77.05038452 C-58.45309676 79.87515418 -58.42203363 82.69885341 -58.390625 85.5234375 C-58.38316046 87.48783797 -58.37746853 89.4522459 -58.37347412 91.41665649 C-58.35823459 96.5756299 -58.31896711 101.73414962 -58.2746582 106.89294434 C-58.23366931 112.16164005 -58.21545537 117.43040939 -58.1953125 122.69921875 C-58.15247135 133.02884467 -58.08424026 143.35813454 -58 153.6875 C-55.31433412 155.12851533 -52.62657941 156.56537947 -49.9375 158 C-49.18533203 158.40412109 -48.43316406 158.80824219 -47.65820312 159.22460938 C-43.17840411 161.6099569 -38.69123035 163.75107751 -34 165.6875 C-31.3301683 166.93165195 -28.69652842 168.24438184 -26.0625 169.5625 C-25.35810791 169.91401123 -24.65371582 170.26552246 -23.92797852 170.62768555 C-19.75589787 172.73329836 -15.72244545 174.92162122 -11.87109375 177.58203125 C-9.66019577 178.88826116 -7.34458857 179.83774633 -4.9777832 180.82446289 C-2.86803667 181.74508429 -0.82546752 182.75809918 1.2265625 183.80078125 C1.9484375 184.16107422 2.6703125 184.52136719 3.4140625 184.89257812 C4.90213957 185.63793121 6.38389282 186.39603061 7.859375 187.16601562 C12.15789827 189.3690552 12.15789827 189.3690552 16.8359375 189.04296875 C18.57566792 187.95328201 20.29194866 186.82620089 22 185.6875 C24.96076291 186.04638035 25.84658021 186.53408021 28 188.6875 C31.25459671 188.27081698 34.05059275 186.81556812 36.984375 185.40234375 C37.91894531 184.95439453 38.85351562 184.50644531 39.81640625 184.04492188 C40.78449219 183.57634766 41.75257813 183.10777344 42.75 182.625 C44.22533203 181.91633789 44.22533203 181.91633789 45.73046875 181.19335938 C48.15526162 180.02804629 50.57834631 178.85931907 53 177.6875 C53 177.0275 53 176.3675 53 175.6875 C53.67804688 175.5946875 54.35609375 175.501875 55.0546875 175.40625 C58.70448881 174.51558231 61.81819708 172.91522321 65.125 171.1875 C72.16137088 167.58283911 79.26890076 164.16250191 86.43994141 160.83398438 C87.1932373 160.48142578 87.9465332 160.12886719 88.72265625 159.765625 C89.38015869 159.46043945 90.03766113 159.15525391 90.71508789 158.84082031 C92.7332276 157.82215464 94.68311579 156.740799 96.64280701 155.61541748 C97.75068069 154.97920471 98.85855438 154.34299194 100 153.6875 C100.06958811 142.59542809 100.12285609 131.50340833 100.15543652 120.41116238 C100.17107549 115.26027641 100.19228156 110.10954009 100.22631836 104.95874023 C100.25897473 99.98557634 100.27686632 95.01255615 100.28463173 90.03929329 C100.29016396 88.14432578 100.30096707 86.2493659 100.31719017 84.35445976 C100.33904789 81.69503817 100.34196344 79.03620631 100.34057617 76.37670898 C100.351362 75.5977124 100.36214783 74.81871582 100.3732605 74.01611328 C100.34486224 68.96694472 99.78028023 65.05556169 97 60.6875 C90.44346164 55.76831525 82.64202212 56.12306843 74.80444336 56.18579102 C73.50900101 56.18038803 72.21355865 56.17498505 70.87886047 56.16941833 C67.34987004 56.15554245 63.82137145 56.1665767 60.2924087 56.18312955 C56.58593225 56.19705758 52.87948212 56.1905113 49.17298889 56.18699646 C42.95175318 56.18430076 36.73071111 56.19771569 30.50952148 56.22094727 C23.33224549 56.24756477 16.15529283 56.24929804 8.97798437 56.2375589 C2.05226784 56.22675495 -4.87333251 56.23298791 -11.79903984 56.24711418 C-14.73705248 56.25285017 -17.67497943 56.25281024 -20.61299324 56.24804878 C-24.72011845 56.24236106 -28.82676657 56.26165854 -32.93383789 56.28344727 C-34.14393524 56.27894562 -35.35403259 56.27444397 -36.60079956 56.26980591 C-47.60633484 56.35161524 -47.60633484 56.35161524 -56.47161865 62.32754517 Z " fill="#1D1D1E" transform="translate(195,74.3125)"/>
<path d="M0 0 C3.50436989 1.58315063 6.38053351 3.67720321 9.4375 6 C9.95900635 6.39517822 10.4805127 6.79035645 11.01782227 7.19750977 C12.68180054 8.46080425 14.34151901 9.72949894 16 11 C16.53367187 11.40847168 17.06734375 11.81694336 17.6171875 12.23779297 C22.47105245 15.95662303 27.31049223 19.69409015 32.1484375 23.43359375 C38.06662105 28.0000934 44.01386756 32.52286881 50 37 C57.04870934 42.27185069 64.0344903 47.61873478 71 53 C72.6909557 54.30084882 74.38274609 55.6006055 76.07470703 56.90014648 C77.70574933 58.15349624 79.33546402 59.40855245 80.96484375 60.6640625 C82.91228436 62.16286493 84.86256434 63.65798944 86.81640625 65.1484375 C87.64011719 65.78007812 88.46382812 66.41171875 89.3125 67.0625 C90.03050781 67.61035156 90.74851562 68.15820312 91.48828125 68.72265625 C92.23658203 69.35494141 92.23658203 69.35494141 93 70 C93 70.33 93 70.66 93 71 C30.96 71 -31.08 71 -95 71 C-91.30940803 67.30940803 -87.91408127 64.35036519 -83.6875 61.4375 C-78.46981712 57.77777899 -73.33306863 54.03194886 -68.25 50.1875 C-62.61061007 45.93126627 -56.92352164 41.75006714 -51.1875 37.625 C-38.59951886 28.57099014 -26.1221983 19.36883008 -13.734375 10.04296875 C-9.19061654 6.64813207 -4.59755194 3.32145977 0 0 Z " fill="#E4E1FC" transform="translate(217,268)"/>
<path d="M0 0 C4.74386637 1.58128879 8.96332303 3.36267153 13.375 5.625 C14.80336941 6.34768789 16.23175528 7.07034325 17.66015625 7.79296875 C18.38348145 8.16083496 19.10680664 8.52870117 19.85205078 8.90771484 C23.16749689 10.59370096 26.48826725 12.26891137 29.8125 13.9375 C30.46613525 14.26588867 31.11977051 14.59427734 31.79321289 14.93261719 C36.92780033 17.49773813 42.1138811 19.94289138 47.3125 22.375 C54.67085245 25.82464826 61.87970942 29.50224976 69.05224609 33.32177734 C76.63229924 37.35634729 84.30342021 41.19369145 92 45 C93.33375986 45.66581292 94.66733534 46.33199766 96 47 C94.78033633 50.65899101 93.68620107 51.19744278 90.5625 53.375 C89.5725 54.07496094 88.5825 54.77492188 87.5625 55.49609375 C87.00175781 55.88909668 86.44101563 56.28209961 85.86328125 56.68701172 C82.24088828 59.2395837 78.65435914 61.84223256 75.0625 64.4375 C74.28318115 64.99969238 73.5038623 65.56188477 72.70092773 66.14111328 C65.45882923 71.37290905 58.31197325 76.72241921 51.19921875 82.12890625 C48.1465043 84.43806373 45.07844167 86.72535417 42 89 C41.36964844 89.46841309 40.73929688 89.93682617 40.08984375 90.41943359 C30.41271614 97.57239714 20.59341721 103.75464648 9.80712891 109.10205078 C8.07359345 109.96343195 6.35473513 110.8541619 4.63671875 111.74609375 C2 113 2 113 0 113 C0 75.71 0 38.42 0 0 Z " fill="#E3E0FB" transform="translate(107,222)"/>
<path d="M0 0 C45.87 0 91.74 0 139 0 C140.93275854 13.52930975 139.40178704 27.33924069 139 41 C93.13 41 47.26 41 0 41 C0 27.47 0 13.94 0 0 Z " fill="#E5E2FD" transform="translate(146,139)"/>
<path d="M0 0 C0 37.29 0 74.58 0 113 C-12.59679459 108.80106847 -23.20029094 102.68063482 -33.40576172 94.29541016 C-36.14015506 92.07355854 -38.94921136 89.94955796 -41.75 87.8125 C-45.36590146 85.03575655 -48.97111571 82.24589781 -52.5625 79.4375 C-56.93874822 76.02578008 -61.3836488 72.7087955 -65.828125 69.38671875 C-69.07015836 66.94720843 -72.28857494 64.47952558 -75.5 62 C-81.62232454 57.27336184 -87.80029178 52.62464722 -94 48 C-93 45 -93 45 -91.41210938 43.97607422 C-90.72955078 43.6720166 -90.04699219 43.36795898 -89.34375 43.0546875 C-88.57716064 42.70462646 -87.81057129 42.35456543 -87.02075195 41.99389648 C-86.18890381 41.62466064 -85.35705566 41.2554248 -84.5 40.875 C-78.00226861 37.89990653 -71.60510083 34.82605008 -65.3125 31.4375 C-53.48254973 25.09406219 -41.47411752 19.19631435 -29.31298828 13.51586914 C-22.43542747 10.27339017 -15.72249188 6.74910468 -9.0534668 3.09814453 C-8.30363525 2.69321777 -7.55380371 2.28829102 -6.78125 1.87109375 C-6.12189453 1.50943115 -5.46253906 1.14776855 -4.78320312 0.77514648 C-3 0 -3 0 0 0 Z " fill="#E2DFFA" transform="translate(325,222)"/>
<path d="M0 0 C0.93444443 -0.00315216 1.86888885 -0.00630432 2.83164978 -0.009552 C4.35659813 -0.00651566 4.35659813 -0.00651566 5.91235352 -0.00341797 C7.46793724 -0.00485306 7.46793724 -0.00485306 9.0549469 -0.00631714 C11.253266 -0.00699916 13.45158709 -0.00514338 15.64990234 -0.00097656 C19.02323925 0.00436599 22.39644268 -0.00091807 25.76977539 -0.00732422 C27.90063506 -0.00666333 30.03149465 -0.00538196 32.16235352 -0.00341797 C33.17696152 -0.0054422 34.19156952 -0.00746643 35.23692322 -0.009552 C36.17451981 -0.00639984 37.11211639 -0.00324768 38.078125 0 C39.31936378 0.00119339 39.31936378 0.00119339 40.5856781 0.00241089 C42.60375977 0.12939453 42.60375977 0.12939453 44.60375977 1.12939453 C46.49254737 34.35181933 46.49254737 34.35181933 44.60375977 38.12939453 C37.6437253 38.15466291 30.68370257 38.17222675 23.72363281 38.18432617 C21.35383665 38.18936795 18.98404361 38.19620118 16.61425781 38.20483398 C13.21621938 38.21690643 9.81822191 38.22262424 6.42016602 38.22705078 C5.35351212 38.23221207 4.28685822 38.23737335 3.18788147 38.24269104 C2.20694016 38.24276657 1.22599884 38.2428421 0.21533203 38.24291992 C-1.08705666 38.24625084 -1.08705666 38.24625084 -2.41575623 38.24964905 C-4.39624023 38.12939453 -4.39624023 38.12939453 -5.39624023 37.12939453 C-5.49719588 34.4748326 -5.53595022 31.84684277 -5.52905273 29.19189453 C-5.53000946 28.39662354 -5.53096619 27.60135254 -5.5319519 26.78198242 C-5.53263367 25.09732993 -5.53077966 23.41267482 -5.52661133 21.72802734 C-5.52126299 19.14040256 -5.52655642 16.55295137 -5.53295898 13.96533203 C-5.5322982 12.33251915 -5.53101704 10.69970637 -5.52905273 9.06689453 C-5.53107697 8.28773682 -5.5331012 7.5085791 -5.53518677 6.70581055 C-5.5057474 0.0052986 -5.5057474 0.0052986 0 0 Z " fill="#E6E4FC" transform="translate(240.396240234375,186.87060546875)"/>
<path d="M0 0 C4.28763131 1.34345781 8.31149037 2.61602347 12.25 4.8125 C14.94079241 6.30701664 14.94079241 6.30701664 17.6875 5.3125 C19.50242318 4.28240847 21.26361754 3.1575883 23 2 C25.96076291 2.35888035 26.84658021 2.84658021 29 5 C31.26274788 4.64644564 32.95088852 4.02455574 35 3 C36.99960012 2.960008 39.00047242 2.95653201 41 3 C40.67 3.66 40.34 4.32 40 5 C40.99 5.99 40.99 5.99 42 7 C40.68 8.32 39.36 9.64 38 11 C39.24495683 14.73487048 40.54723988 15.34556055 43.75 17.5625 C48.0538984 20.60251103 52.27613925 23.70769386 56.4375 26.9375 C60.68241539 30.22327625 64.94948255 33.47440691 69.25 36.6875 C73.39977703 39.79033982 77.51336321 42.93165381 81.59375 46.125 C83.97057356 47.97707031 86.35971544 49.81252845 88.75146484 51.64526367 C94.89609425 56.35472262 100.97824674 61.13366215 107 66 C105.26007624 68.19779843 104.39131796 68.93751536 101.578125 69.38671875 C98.38492622 68.90773893 97.17580251 67.92853276 94.75 65.8125 C93.45255859 64.72001953 93.45255859 64.72001953 92.12890625 63.60546875 C91.6405127 63.19345215 91.15211914 62.78143555 90.64892578 62.35693359 C87.40235353 59.68526516 84.03565696 57.16723614 80.6875 54.625 C79.20292301 53.49375461 77.71854682 52.36224566 76.234375 51.23046875 C75.51443359 50.68181152 74.79449219 50.1331543 74.05273438 49.56787109 C71.17284264 47.3682202 68.30546424 45.15268134 65.4375 42.9375 C60.75949078 39.33322738 56.04506272 35.7822206 51.3125 32.25 C42.44244289 25.62773691 33.71602187 18.82308695 25 12 C13.13494624 17.82239429 2.58875193 27.16725246 -8 35 C-12.83756946 38.57752935 -17.67714735 42.1519567 -22.53125 45.70703125 C-25.41135657 47.81824339 -28.26271595 49.96022309 -31.09375 52.13671875 C-32.33325475 53.07041683 -33.57283325 54.00401701 -34.8125 54.9375 C-35.35688721 55.36901367 -35.90127441 55.80052734 -36.4621582 56.24511719 C-39.34194068 58.3849775 -40.57941839 59.05225253 -44.20703125 58.6015625 C-45.12871094 58.40304687 -46.05039063 58.20453125 -47 58 C-49.8971941 60.31273442 -49.8971941 60.31273442 -52 63 C-52 60 -52 60 -51 57 C-49.12890625 55.4140625 -49.12890625 55.4140625 -46.5625 53.625 C-45.56734375 52.92117188 -44.5721875 52.21734375 -43.546875 51.4921875 C-42.70479492 50.90195801 -42.70479492 50.90195801 -41.84570312 50.29980469 C-38.31369359 47.81244771 -34.81504089 45.27859627 -31.3125 42.75 C-30.54204346 42.19481689 -29.77158691 41.63963379 -28.9777832 41.06762695 C-23.19591281 36.89153119 -17.48029145 32.63393989 -11.79199219 28.33154297 C-6.6890816 24.48313007 -1.50528856 20.75943267 3.74902344 17.12036133 C6.87352441 15.021049 6.87352441 15.021049 9 12 C7.02 11.34 5.04 10.68 3 10 C3.33 8.68 3.66 7.36 4 6 C4.66 6 5.32 6 6 6 C6 5.01 6 4.02 6 3 C5.195625 2.87625 4.39125 2.7525 3.5625 2.625 C2.2940625 2.315625 2.2940625 2.315625 1 2 C0.505 1.01 0.505 1.01 0 0 Z " fill="#121217" transform="translate(194,257)"/>
<path d="M0 0 C-0.15847412 0.79744629 -0.31694824 1.59489258 -0.48022461 2.41650391 C-1.1072183 6.73919691 -1.2300308 10.97396434 -1.31640625 15.3359375 C-1.33718735 16.21528961 -1.35796844 17.09464172 -1.37937927 18.00064087 C-1.44442963 20.79201931 -1.50355148 23.58348671 -1.5625 26.375 C-1.60572762 28.27474855 -1.64934323 30.17448831 -1.69335938 32.07421875 C-1.80006501 36.71605614 -1.90145615 41.35798246 -2 46 C-2.33 45.34 -2.66 44.68 -3 44 C-4.7634375 44.495 -4.7634375 44.495 -6.5625 45 C-10.5011676 45.9969533 -13.95139129 46.16869203 -18 46 C-19.78649995 42.81600751 -20.56556202 39.85799139 -21.25390625 36.28125 C-21.57584961 34.63576172 -21.57584961 34.63576172 -21.90429688 32.95703125 C-22.12150391 31.81621094 -22.33871094 30.67539063 -22.5625 29.5 C-23.00056331 27.23944005 -23.43933603 24.97901742 -23.87890625 22.71875 C-24.0704126 21.71779297 -24.26191895 20.71683594 -24.45922852 19.68554688 C-24.78391141 18.07312616 -25.14235093 16.46619937 -25.56616211 14.87695312 C-26.24723953 11.93034468 -26.05786528 9.00899446 -26 6 C-18.01270515 3.05731242 -8.59339102 0 0 0 Z " fill="#E6E4FB" transform="translate(131,134)"/>
<path d="M0 0 C8.14793461 0.48026444 16.13991082 1.57648068 24.19433594 2.84082031 C30.86538433 3.87273634 37.54066542 4.66291977 44.26416016 5.26538086 C47.90210165 5.62261106 50.87115684 6.036325 54 8 C54 8.66 54 9.32 54 10 C52.77482666 10.25692627 52.77482666 10.25692627 51.52490234 10.51904297 C48.47156871 11.16109708 45.41892378 11.80630904 42.36669922 12.45361328 C40.40513159 12.86862501 38.44280493 13.2800439 36.48046875 13.69140625 C35.23652344 13.95566406 33.99257812 14.21992187 32.7109375 14.4921875 C31.56931152 14.73308105 30.42768555 14.97397461 29.25146484 15.22216797 C26.08950188 15.9785889 23.07768682 16.95919599 20 18 C17.73781609 18.40576101 15.46555806 18.75824758 13.1875 19.0625 C11.36412109 19.30806641 11.36412109 19.30806641 9.50390625 19.55859375 C5.33932057 20.0832294 1.1752029 20.56808246 -3 21 C-2.88553728 18.43663746 -2.75880499 15.87486555 -2.625 13.3125 C-2.5940625 12.59126953 -2.563125 11.87003906 -2.53125 11.12695312 C-2.30664413 7.02789606 -1.82259091 3.75631541 0 0 Z " fill="#E3E1F8" transform="translate(178,88)"/>
<path d="M0 0 C25.74 0 51.48 0 78 0 C78 2.97 78 5.94 78 9 C52.26 9 26.52 9 0 9 C0 6.03 0 3.06 0 0 Z " fill="#101010" transform="translate(146,191)"/>
<path d="M0 0 C0.495 3.96 0.495 3.96 1 8 C-2.66425303 10.35724954 -6.13280166 10.2365369 -10.33886719 10.13525391 C-11.07096909 10.12579239 -11.80307098 10.11633087 -12.55735779 10.10658264 C-14.9707882 10.07297609 -17.38369725 10.02484206 -19.796875 9.9765625 C-21.47266284 9.950388 -23.1484651 9.92512158 -24.82427979 9.90072632 C-29.23030869 9.83414754 -33.63603376 9.75523918 -38.04180908 9.67376709 C-42.53947304 9.5927765 -47.03731497 9.5234403 -51.53515625 9.453125 C-60.35698415 9.31349327 -69.178535 9.16083629 -78 9 C-78 6.36 -78 3.72 -78 1 C-67.97771839 0.86954019 -57.95543588 0.73914962 -47.9331522 0.60884857 C-43.27989724 0.54834878 -38.6266426 0.48782473 -33.97338867 0.42724609 C-29.4865571 0.36883491 -24.99972473 0.31048633 -20.51289177 0.25218201 C-18.79719959 0.22987621 -17.0815077 0.20754748 -15.36581612 0.18519592 C-12.97117311 0.15400301 -10.57652907 0.12289011 -8.18188477 0.09179688 C-7.46547318 0.08244614 -6.74906158 0.0730954 -6.01094055 0.0634613 C-1.11405216 0 -1.11405216 0 0 0 Z " fill="#232323" transform="translate(224,203)"/>
<path d="M0 0 C1.7734375 0.8203125 1.7734375 0.8203125 2.7734375 2.8203125 C1.55071792 6.21151583 -0.20236017 7.84359101 -3.0859375 9.921875 C-4.25539917 10.77446899 -4.25539917 10.77446899 -5.44848633 11.64428711 C-6.28275146 12.23862549 -7.1170166 12.83296387 -7.9765625 13.4453125 C-8.82822998 14.05834229 -9.67989746 14.67137207 -10.55737305 15.30297852 C-12.28882277 16.54882326 -14.02213567 17.79208276 -15.75732422 19.03271484 C-17.99584927 20.65328835 -20.19675036 22.3108006 -22.38671875 23.99609375 C-23.00901367 24.46644043 -23.63130859 24.93678711 -24.27246094 25.42138672 C-25.41958221 26.28917857 -26.55763871 27.16913422 -27.68457031 28.06298828 C-30.56610028 30.20296129 -31.80406202 30.87280342 -35.43359375 30.421875 C-36.35527344 30.22335937 -37.27695313 30.02484375 -38.2265625 29.8203125 C-41.1237566 32.13304692 -41.1237566 32.13304692 -43.2265625 34.8203125 C-43.2265625 31.8203125 -43.2265625 31.8203125 -42.2265625 28.8203125 C-40.35546875 27.234375 -40.35546875 27.234375 -37.7890625 25.4453125 C-36.80035156 24.74664062 -35.81164062 24.04796875 -34.79296875 23.328125 C-34.2323877 22.9352832 -33.67180664 22.54244141 -33.09423828 22.13769531 C-30.23621516 20.12176162 -27.40535923 18.06867268 -24.57250977 16.01757812 C-23.00849738 14.88603331 -21.44257484 13.75712402 -19.87475586 12.63085938 C-16.47220207 10.18501562 -13.08348716 7.73181981 -9.765625 5.171875 C-8.80398437 4.43710937 -7.84234375 3.70234375 -6.8515625 2.9453125 C-6.03945312 2.30851562 -5.22734375 1.67171875 -4.390625 1.015625 C-2.2265625 -0.1796875 -2.2265625 -0.1796875 0 0 Z " fill="#0F1015" transform="translate(185.2265625,285.1796875)"/>
<path d="M0 0 C11.22 0 22.44 0 34 0 C34 2.97 34 5.94 34 9 C22.78 9 11.56 9 0 9 C0 6.03 0 3.06 0 0 Z " fill="#010101" transform="translate(146,217)"/>
<path d="M0 0 C1.299375 0.433125 1.299375 0.433125 2.625 0.875 C3.6975 1.16375 4.77 1.4525 5.875 1.75 C6.7825 2.12125 7.69 2.4925 8.625 2.875 C9.72158936 6.16476808 9.42453138 7.58803767 8.625 10.875 C3.50403356 9.33871007 -0.43032739 7.3473363 -5.375 4.875 C-5.375 42.165 -5.375 79.455 -5.375 117.875 C-5.705 117.875 -6.035 117.875 -6.375 117.875 C-6.46843384 103.08039397 -6.53897444 88.28582697 -6.58224869 73.49098587 C-6.60287562 66.62149443 -6.63099838 59.75218629 -6.67675781 52.8828125 C-6.72087844 46.25629838 -6.7441229 39.62992494 -6.75450897 33.00325775 C-6.76191266 30.47222644 -6.77636989 27.94120582 -6.79792023 25.41025543 C-6.82686152 21.87125417 -6.83095974 18.33304544 -6.82910156 14.79394531 C-6.84348267 13.74234222 -6.85786377 12.69073914 -6.87268066 11.60726929 C-6.83233865 4.52946303 -6.83233865 4.52946303 -4.49505615 1.18475342 C-2.375 -0.125 -2.375 -0.125 0 0 Z " fill="#141219" transform="translate(112.375,217.125)"/>
<path d="M0 0 C-0.495 0.391875 -0.99 0.78375 -1.5 1.1875 C-3.45593143 3.55091715 -3.24207973 5.01435003 -3 8 C-9.17804317 11.65066187 -15.56442169 14.82976438 -22 18 C-22.99 16.68 -23.98 15.36 -25 14 C-24.67 13.67 -24.34 13.34 -24 13 C-24.99 12.34 -25.98 11.68 -27 11 C-24.54379149 9.82866942 -22.08525083 8.66278278 -19.625 7.5 C-18.92632812 7.16613281 -18.22765625 6.83226562 -17.5078125 6.48828125 C-12.2265625 4 -12.2265625 4 -10 4 C-10 3.34 -10 2.68 -10 2 C-3.375 -1.125 -3.375 -1.125 0 0 Z " fill="#242427" transform="translate(258,248)"/>
<path d="M0 0 C11.22 0 22.44 0 34 0 C34 0.66 34 1.32 34 2 C23.44 2 12.88 2 2 2 C2 3.65 2 5.3 2 7 C12.56 7 23.12 7 34 7 C34 7.66 34 8.32 34 9 C22.78 9 11.56 9 0 9 C0 6.03 0 3.06 0 0 Z " fill="#585858" transform="translate(146,217)"/>
<path d="M0 0 C0.33 0 0.66 0 1 0 C1 28.71 1 57.42 1 87 C2.65 87.66 4.3 88.32 6 89 C5.01 89.495 5.01 89.495 4 90 C2.35 89.34 0.7 88.68 -1 88 C-0.67 58.96 -0.34 29.92 0 0 Z " fill="#BCBCBD" transform="translate(136,141)"/>
<path d="M0 0 C1.3303125 0.37125 1.3303125 0.37125 2.6875 0.75 C3.76 1.03875 4.8325 1.3275 5.9375 1.625 C6.845 1.99625 7.7525 2.3675 8.6875 2.75 C9.78408936 6.03976808 9.48703138 7.46303767 8.6875 10.75 C3.8470549 9.33328436 -0.09740561 7.47741402 -4.3125 4.75 C-4.6425 3.76 -4.9725 2.77 -5.3125 1.75 C-2.3125 -0.25 -2.3125 -0.25 0 0 Z " fill="#0C0B0F" transform="translate(112.3125,217.25)"/>
<path d="M0 0 C0.33 0.99 0.66 1.98 1 3 C0.34 3 -0.32 3 -1 3 C-0.67 13.23 -0.34 23.46 0 34 C0.99 34.33 1.98 34.66 3 35 C0 37 0 37 -3 37 C-3 25.45 -3 13.9 -3 2 C-2.01 2 -1.02 2 0 2 C0 1.34 0 0.68 0 0 Z " fill="#838383" transform="translate(305,188)"/>
<path d="M0 0 C0 0.33 0 0.66 0 1 C-9.57 1 -19.14 1 -29 1 C-29.66 2.32 -30.32 3.64 -31 5 C-32.7265625 6.703125 -32.7265625 6.703125 -34.625 8.25 C-35.25664062 8.77078125 -35.88828125 9.2915625 -36.5390625 9.828125 C-37.02117187 10.21484375 -37.50328125 10.6015625 -38 11 C-38 6.66314164 -35.91985986 5.0556673 -33 2 C-32.01 2 -31.02 2 -30 2 C-30 1.34 -30 0.68 -30 0 C-20.35371806 -4.06159239 -9.97982403 -1.61057679 0 0 Z " fill="#7E7E7E" transform="translate(200,75)"/>
<path d="M0 0 C12.66970387 0.96355353 12.66970387 0.96355353 18 2 C18 2.33 18 2.66 18 3 C12.72 3 7.44 3 2 3 C1.5978125 6.155625 1.5978125 6.155625 1.1875 9.375 C0.73046875 12.9609375 0.73046875 12.9609375 0 16 C-0.99 16.66 -1.98 17.32 -3 18 C-2.88521587 15.93690624 -2.75773802 13.87451646 -2.625 11.8125 C-2.55539063 10.66394531 -2.48578125 9.51539062 -2.4140625 8.33203125 C-2.02490426 5.20040883 -1.3190149 2.84714191 0 0 Z " fill="#F5F4FC" transform="translate(178,88)"/>
<path d="M0 0 C0.28875 0.78375 0.5775 1.5675 0.875 2.375 C1.84912254 5.09671632 1.84912254 5.09671632 4 7 C-0.66785662 7 -4.14070855 5.57286097 -8 3 C-8 2.34 -8 1.68 -8 1 C-5.07175348 0.02391783 -3.04386724 -0.08226668 0 0 Z " fill="#09080C" transform="translate(236,273)"/>
<path d="M0 0 C0.33 0 0.66 0 1 0 C1 6.6 1 13.2 1 20 C3.475 20.99 3.475 20.99 6 22 C5.34 22.33 4.68 22.66 4 23 C1.525 22.01 1.525 22.01 -1 21 C-0.67 14.07 -0.34 7.14 0 0 Z " fill="#A0A0A0" transform="translate(136,208)"/>
<path d="M0 0 C3.5786304 1.65167557 6.74820188 3.78286492 10 6 C9.01 6.66 8.02 7.32 7 8 C6.34 7.01 5.68 6.02 5 5 C3.02 5.33 1.04 5.66 -1 6 C-1.625 4.125 -1.625 4.125 -2 2 C-1.34 1.34 -0.68 0.68 0 0 Z " fill="#D2D1E2" transform="translate(217,268)"/>
<path d="M0 0 C0.66 0.33 1.32 0.66 2 1 C2 1.99 2 2.98 2 4 C-1.78187881 5.83691257 -3.94568308 6.15837626 -8 5 C-5.45378681 2.99940392 -3.01962385 1.20784954 0 0 Z " fill="#CAC8DD" transform="translate(312,227)"/>
<path d="M0 0 C1.32 0.33 2.64 0.66 4 1 C1.03 3.64 -1.94 6.28 -5 9 C-5 4.61031544 -2.87194899 3.23094261 0 0 Z " fill="#5E5E5E" transform="translate(167,77)"/>
<path d="M0 0 C0.33 0 0.66 0 1 0 C0.4618629 5.69051363 -0.1400133 11.34865884 -1 17 C-1.33 17 -1.66 17 -2 17 C-2.05418326 14.91695462 -2.09287551 12.83350232 -2.125 10.75 C-2.14820313 9.58984375 -2.17140625 8.4296875 -2.1953125 7.234375 C-2.0103949 4.17213954 -1.60823023 2.55797249 0 0 Z " fill="#737373" transform="translate(323,190)"/>
<path d="M0 0 C1.67542976 0.28604898 3.34385343 0.61781233 5 1 C5 1.99 5 2.98 5 4 C3.02 4.33 1.04 4.66 -1 5 C-1 1 -1 1 0 0 Z " fill="#040406" transform="translate(171,295)"/>
<path d="M0 0 C0.99 0.33 1.98 0.66 3 1 C1.4375 3.4375 1.4375 3.4375 -1 6 C-4.75 6.8125 -4.75 6.8125 -8 7 C-3.04087193 1.86376022 -3.04087193 1.86376022 0 0 Z " fill="#CFCDDF" transform="translate(191,287)"/>
<path d="M0 0 C0.66 0 1.32 0 2 0 C2.33 1.65 2.66 3.3 3 5 C4.65 5.33 6.3 5.66 8 6 C5 8 5 8 1 8 C0.34 5.69 -0.32 3.38 -1 1 C-0.67 0.67 -0.34 0.34 0 0 Z " fill="#696969" transform="translate(116,191)"/>
<path d="M0 0 C1.65 0.33 3.3 0.66 5 1 C5 1.66 5 2.32 5 3 C0.545 3.495 0.545 3.495 -4 4 C-3.67 3.01 -3.34 2.02 -3 1 C-2.67 1.66 -2.34 2.32 -2 3 C-1.34 2.01 -0.68 1.02 0 0 Z " fill="#DBD9E4" transform="translate(227,95)"/>
<path d="M0 0 C0 0.99 0 1.98 0 3 C-0.99 3.33 -1.98 3.66 -3 4 C-2.67 5.32 -2.34 6.64 -2 8 C-4.97 7.505 -4.97 7.505 -8 7 C-5.42215154 4.35247996 -3.08351902 2.05567935 0 0 Z " fill="#C9C7DB" transform="translate(168,304)"/>
<path d="M0 0 C0.99 0.33 1.98 0.66 3 1 C3 1.99 3 2.98 3 4 C3.99 4.33 4.98 4.66 6 5 C5.34 5.66 4.68 6.32 4 7 C2.35 5.68 0.7 4.36 -1 3 C-0.67 2.01 -0.34 1.02 0 0 Z " fill="#C1BECE" transform="translate(232,267)"/>
<path d="M0 0 C3.95820859 0.56545837 6.6659053 1.80902348 10 4 C8.02 4.99 8.02 4.99 6 6 C6 5.34 6 4.68 6 4 C5.34 4 4.68 4 4 4 C4 3.34 4 2.68 4 2 C2.68 1.67 1.36 1.34 0 1 C0 0.67 0 0.34 0 0 Z " fill="#7D7E7D" transform="translate(154,237)"/>
<path d="M0 0 C-2.64 1.65 -5.28 3.3 -8 5 C-8.66 4.34 -9.32 3.68 -10 3 C-3.375 -1.125 -3.375 -1.125 0 0 Z " fill="#5C5C5C" transform="translate(288,233)"/>
<path d="M0 0 C4.40114397 0.50298788 6.71195019 2.08772731 10 5 C7.8125 5.3125 7.8125 5.3125 5 5 C2.1875 2.5 2.1875 2.5 0 0 Z " fill="#676766" transform="translate(164,242)"/>
<path d="M0 0 C-5.41538462 4.06153846 -5.41538462 4.06153846 -8.375 3.75 C-8.91125 3.5025 -9.4475 3.255 -10 3 C-3.375 -1.125 -3.375 -1.125 0 0 Z " fill="#696968" transform="translate(268,243)"/>
<path d="M0 0 C-5.41538462 4.06153846 -5.41538462 4.06153846 -8.375 3.75 C-8.91125 3.5025 -9.4475 3.255 -10 3 C-3.375 -1.125 -3.375 -1.125 0 0 Z " fill="#676867" transform="translate(278,238)"/>
<path d="M0 0 C0.66 0.33 1.32 0.66 2 1 C1.375 2.9375 1.375 2.9375 0 5 C-3.125 5.75 -3.125 5.75 -6 6 C-4 4 -2 2 0 0 Z " fill="#C3C2D0" transform="translate(146,320)"/>
<path d="M0 0 C2.625 1.25 2.625 1.25 5 3 C5 3.99 5 4.98 5 6 C2.11562221 4.70700306 0.12780579 3.34058637 -2 1 C-1.34 0.67 -0.68 0.34 0 0 Z " fill="#1F1E26" transform="translate(235,278)"/>
<path d="M0 0 C0.66 0.33 1.32 0.66 2 1 C0.35 2.65 -1.3 4.3 -3 6 C-5 5 -5 5 -6 3 C-4.03533587 1.93224776 -2.03144641 0.93446535 0 0 Z " fill="#C6C4D6" transform="translate(272,247)"/>
<path d="M0 0 C4.40114397 0.50298788 6.71195019 2.08772731 10 5 C5.2482602 4.56802365 3.07999946 3.67230705 0 0 Z " fill="#636363" transform="translate(174,247)"/>
<path d="M0 0 C0.66 0.33 1.32 0.66 2 1 C0.1875 3.5 0.1875 3.5 -2 6 C-2.99 6 -3.98 6 -5 6 C-5 5.34 -5 4.68 -5 4 C-4.34 4 -3.68 4 -3 4 C-3 3.34 -3 2.68 -3 2 C-2.01 1.34 -1.02 0.68 0 0 Z " fill="#666666" transform="translate(96,127)"/>
<path d="M0 0 C0.33 0.99 0.66 1.98 1 3 C-4.2734375 6.22265625 -4.2734375 6.22265625 -6 7 C-6.66 6.67 -7.32 6.34 -8 6 C-5.36 4.02 -2.72 2.04 0 0 Z " fill="#C4C2D5" transform="translate(138,326)"/>
<path d="M0 0 C0 0.66 0 1.32 0 2 C-2.25 4.1875 -2.25 4.1875 -5 6 C-7.171875 5.61328125 -7.171875 5.61328125 -9 5 C-7.87926138 4.16094435 -6.75325453 3.32892169 -5.625 2.5 C-4.99851563 2.0359375 -4.37203125 1.571875 -3.7265625 1.09375 C-2 0 -2 0 0 0 Z " fill="#21212B" transform="translate(202,272)"/>
<path d="M0 0 C0.99 0.33 1.98 0.66 3 1 C2.67 1.66 2.34 2.32 2 3 C-0.64860427 3.59355614 -3.29197322 3.74209269 -6 4 C-4.03617993 2.49440461 -2.21736634 1.10868317 0 0 Z " fill="#BCBBCC" transform="translate(280,243)"/>
</svg>
